<svg width="207" height="31" viewBox="0 0 207 31" fill="none" xmlns="http://www.w3.org/2000/svg">
<path d="M1.752 17V1.16H14.088V4.352H5.88V7.568H12.408V10.568H5.88V13.808H14.4V17H1.752ZM31.1726 1.16V17H26.5886L21.6686 8.432L20.4686 6.08H20.4446L20.5406 9.008V17H16.8926V1.16H21.4766L26.3966 9.728L27.5966 12.08H27.6206L27.5246 9.152V1.16H31.1726ZM48.0017 1.16V4.352H42.8417V17H38.7137V4.352H33.5297V1.16H48.0017ZM50.3614 17V1.16H62.6974V4.352H54.4894V7.568H61.0174V10.568H54.4894V13.808H63.0094V17H50.3614ZM73.062 1.16C74.95 1.16 76.414 1.608 77.454 2.504C78.51 3.384 79.038 4.56 79.038 6.032C79.038 7.648 78.518 8.88 77.478 9.728C76.438 10.576 74.974 11 73.086 11L72.702 11.216H69.558V17H65.502V1.16H73.062ZM72.486 8.288C73.286 8.288 73.886 8.128 74.286 7.808C74.686 7.488 74.886 6.976 74.886 6.272C74.886 5.584 74.686 5.08 74.286 4.76C73.886 4.44 73.286 4.28 72.486 4.28H69.558V8.288H72.486ZM74.91 9.152L79.974 17H75.414L71.358 10.064L74.91 9.152ZM89.3209 1.16C90.6169 1.16 91.7209 1.368 92.6329 1.784C93.5449 2.2 94.2409 2.8 94.7209 3.584C95.2009 4.368 95.4409 5.32 95.4409 6.44C95.4409 7.56 95.2009 8.512 94.7209 9.296C94.2409 10.08 93.5449 10.68 92.6329 11.096C91.7209 11.512 90.6169 11.72 89.3209 11.72H86.1769V17H82.0489V1.16H89.3209ZM88.6729 8.624C89.5369 8.624 90.1849 8.448 90.6169 8.096C91.0649 7.728 91.2889 7.176 91.2889 6.44C91.2889 5.704 91.0649 5.16 90.6169 4.808C90.1849 4.44 89.5369 4.256 88.6729 4.256H86.1769V8.624H88.6729ZM105.64 1.16C107.528 1.16 108.992 1.608 110.032 2.504C111.088 3.384 111.616 4.56 111.616 6.032C111.616 7.648 111.096 8.88 110.056 9.728C109.016 10.576 107.552 11 105.664 11L105.28 11.216H102.136V17H98.0801V1.16H105.64ZM105.064 8.288C105.864 8.288 106.464 8.128 106.864 7.808C107.264 7.488 107.464 6.976 107.464 6.272C107.464 5.584 107.264 5.08 106.864 4.76C106.464 4.44 105.864 4.28 105.064 4.28H102.136V8.288H105.064ZM107.488 9.152L112.552 17H107.992L103.936 10.064L107.488 9.152ZM118.755 1.16V17H114.627V1.16H118.755ZM128.46 0.92C129.932 0.92 131.228 1.152 132.348 1.616C133.484 2.064 134.468 2.728 135.3 3.608L133.308 6.272C132.62 5.552 131.876 5.016 131.076 4.664C130.292 4.296 129.396 4.112 128.388 4.112C127.796 4.112 127.316 4.176 126.948 4.304C126.58 4.432 126.316 4.608 126.156 4.832C125.996 5.056 125.916 5.312 125.916 5.6C125.916 5.936 126.068 6.224 126.372 6.464C126.692 6.688 127.204 6.88 127.908 7.04L130.572 7.64C132.156 8.008 133.316 8.544 134.052 9.248C134.788 9.952 135.156 10.888 135.156 12.056C135.156 13.176 134.868 14.128 134.292 14.912C133.716 15.68 132.924 16.264 131.916 16.664C130.908 17.048 129.756 17.24 128.46 17.24C127.404 17.24 126.396 17.128 125.436 16.904C124.476 16.664 123.612 16.328 122.844 15.896C122.076 15.464 121.428 14.968 120.9 14.408L122.892 11.648C123.292 12.112 123.78 12.528 124.356 12.896C124.948 13.248 125.588 13.528 126.276 13.736C126.98 13.944 127.692 14.048 128.412 14.048C128.972 14.048 129.436 13.992 129.804 13.88C130.188 13.768 130.468 13.6 130.644 13.376C130.82 13.152 130.908 12.888 130.908 12.584C130.908 12.248 130.788 11.968 130.548 11.744C130.308 11.504 129.852 11.304 129.18 11.144L126.252 10.496C125.356 10.288 124.556 10.016 123.852 9.68C123.164 9.328 122.62 8.864 122.22 8.288C121.82 7.696 121.62 6.96 121.62 6.08C121.62 5.088 121.892 4.208 122.436 3.44C122.98 2.656 123.764 2.04 124.788 1.592C125.812 1.144 127.036 0.92 128.46 0.92ZM137.736 17V1.16H150.072V4.352H141.864V7.568H148.392V10.568H141.864V13.808H150.384V17H137.736ZM166.848 0.92C168.448 0.92 169.824 1.248 170.976 1.904C172.144 2.544 173.04 3.472 173.664 4.688C174.288 5.904 174.6 7.368 174.6 9.08C174.6 10.792 174.288 12.256 173.664 13.472C173.04 14.688 172.144 15.624 170.976 16.28C169.824 16.92 168.448 17.24 166.848 17.24C165.248 17.24 163.864 16.92 162.696 16.28C161.528 15.624 160.632 14.688 160.008 13.472C159.384 12.256 159.072 10.792 159.072 9.08C159.072 7.368 159.384 5.904 160.008 4.688C160.632 3.472 161.528 2.544 162.696 1.904C163.864 1.248 165.248 0.92 166.848 0.92ZM166.848 4.16C166.08 4.16 165.432 4.344 164.904 4.712C164.376 5.08 163.976 5.632 163.704 6.368C163.432 7.088 163.296 7.992 163.296 9.08C163.296 10.152 163.432 11.056 163.704 11.792C163.976 12.528 164.376 13.08 164.904 13.448C165.432 13.816 166.08 14 166.848 14C167.616 14 168.256 13.816 168.768 13.448C169.296 13.08 169.696 12.528 169.968 11.792C170.24 11.056 170.376 10.152 170.376 9.08C170.376 7.992 170.24 7.088 169.968 6.368C169.696 5.632 169.296 5.08 168.768 4.712C168.256 4.344 167.616 4.16 166.848 4.16ZM184.712 1.16C186.008 1.16 187.112 1.368 188.023 1.784C188.936 2.2 189.632 2.8 190.112 3.584C190.592 4.368 190.832 5.32 190.832 6.44C190.832 7.56 190.592 8.512 190.112 9.296C189.632 10.08 188.936 10.68 188.023 11.096C187.112 11.512 186.008 11.72 184.712 11.72H181.568V17H177.44V1.16H184.712ZM184.064 8.624C184.928 8.624 185.576 8.448 186.008 8.096C186.456 7.728 186.68 7.176 186.68 6.44C186.68 5.704 186.456 5.16 186.008 4.808C185.576 4.44 184.928 4.256 184.064 4.256H181.568V8.624H184.064ZM206.51 1.16V4.352H201.35V17H197.222V4.352H192.038V1.16H206.51Z" fill="#013EA6"/>
<path d="M4.114 22.63C4.80333 22.63 5.39733 22.784 5.896 23.092C6.402 23.3927 6.79067 23.8217 7.062 24.379C7.34067 24.9363 7.48 25.6 7.48 26.37C7.48 27.14 7.34067 27.8037 7.062 28.361C6.79067 28.9183 6.402 29.351 5.896 29.659C5.39733 29.9597 4.80333 30.11 4.114 30.11C3.42467 30.11 2.827 29.9597 2.321 29.659C1.82233 29.351 1.43367 28.9183 1.155 28.361C0.883667 27.8037 0.748 27.14 0.748 26.37C0.748 25.6 0.883667 24.9363 1.155 24.379C1.43367 23.8217 1.82233 23.3927 2.321 23.092C2.827 22.784 3.42467 22.63 4.114 22.63ZM4.114 23.455C3.61533 23.455 3.18267 23.5723 2.816 23.807C2.44933 24.0343 2.167 24.368 1.969 24.808C1.771 25.2407 1.672 25.7613 1.672 26.37C1.672 26.9787 1.771 27.503 1.969 27.943C2.167 28.3757 2.44933 28.7093 2.816 28.944C3.18267 29.1713 3.61533 29.285 4.114 29.285C4.62 29.285 5.05267 29.1713 5.412 28.944C5.77867 28.7093 6.061 28.3757 6.259 27.943C6.457 27.503 6.556 26.9787 6.556 26.37C6.556 25.7613 6.457 25.2407 6.259 24.808C6.061 24.368 5.77867 24.0343 5.412 23.807C5.05267 23.5723 4.62 23.455 4.114 23.455ZM11.9795 22.74C12.4708 22.74 12.8962 22.8317 13.2555 23.015C13.6222 23.191 13.9082 23.444 14.1135 23.774C14.3188 24.104 14.4215 24.4963 14.4215 24.951C14.4215 25.4057 14.3188 25.798 14.1135 26.128C13.9082 26.458 13.6222 26.7147 13.2555 26.898C12.8962 27.074 12.4708 27.162 11.9795 27.162H10.2965V30H9.41652V22.74H11.9795ZM11.8475 26.337C12.4195 26.337 12.8375 26.2197 13.1015 25.985C13.3655 25.743 13.4975 25.3983 13.4975 24.951C13.4975 24.4963 13.3655 24.1517 13.1015 23.917C12.8375 23.6823 12.4195 23.565 11.8475 23.565H10.2965V26.337H11.8475ZM21.2344 22.74V23.565H18.7044V30H17.8244V23.565H15.2944V22.74H21.2344ZM23.6491 22.74V30H22.7691V22.74H23.6491ZM33.0419 22.74V30H32.2059V25.435L32.3049 23.521H32.2939L29.9069 30H29.1589L26.7719 23.521H26.7609L26.8599 25.435V30H26.0239V22.74H27.3769L28.9719 27.151L29.5219 28.966H29.5439L30.1049 27.162L31.6889 22.74H33.0419ZM36.2926 22.74V30H35.4126V22.74H36.2926ZM38.8875 29.494L38.7335 29.175H43.8045V30H38.0955V29.219L42.8695 23.246L43.0235 23.565H38.2055V22.74H43.6615V23.521L38.8875 29.494ZM45.5962 30V22.74H50.6892V23.565H46.4762V25.908H49.7542V26.733H46.4762V29.175H50.8542V30H45.5962ZM60.892 22.74L58.296 27.162V30H57.416V27.162L54.82 22.74H55.865L57.273 25.226L57.856 26.26L58.439 25.226L59.847 22.74H60.892ZM64.904 22.63C65.5934 22.63 66.1874 22.784 66.686 23.092C67.192 23.3927 67.5807 23.8217 67.852 24.379C68.1307 24.9363 68.27 25.6 68.27 26.37C68.27 27.14 68.1307 27.8037 67.852 28.361C67.5807 28.9183 67.192 29.351 66.686 29.659C66.1874 29.9597 65.5934 30.11 64.904 30.11C64.2147 30.11 63.617 29.9597 63.111 29.659C62.6124 29.351 62.2237 28.9183 61.945 28.361C61.6737 27.8037 61.538 27.14 61.538 26.37C61.538 25.6 61.6737 24.9363 61.945 24.379C62.2237 23.8217 62.6124 23.3927 63.111 23.092C63.617 22.784 64.2147 22.63 64.904 22.63ZM64.904 23.455C64.4054 23.455 63.9727 23.5723 63.606 23.807C63.2394 24.0343 62.957 24.368 62.759 24.808C62.561 25.2407 62.462 25.7613 62.462 26.37C62.462 26.9787 62.561 27.503 62.759 27.943C62.957 28.3757 63.2394 28.7093 63.606 28.944C63.9727 29.1713 64.4054 29.285 64.904 29.285C65.41 29.285 65.8427 29.1713 66.202 28.944C66.5687 28.7093 66.851 28.3757 67.049 27.943C67.247 27.503 67.346 26.9787 67.346 26.37C67.346 25.7613 67.247 25.2407 67.049 24.808C66.851 24.368 66.5687 24.0343 66.202 23.807C65.8427 23.5723 65.41 23.455 64.904 23.455ZM75.7616 22.74V27.294C75.7616 28.2253 75.5159 28.9293 75.0246 29.406C74.5332 29.8753 73.8292 30.11 72.9126 30.11C72.0032 30.11 71.2992 29.8753 70.8006 29.406C70.3092 28.9293 70.0636 28.2253 70.0636 27.294V22.74H70.9436V27.074C70.9436 27.8293 71.1012 28.3867 71.4166 28.746C71.7392 29.1053 72.2379 29.285 72.9126 29.285C73.5872 29.285 74.0822 29.1053 74.3976 28.746C74.7202 28.3867 74.8816 27.8293 74.8816 27.074V22.74H75.7616ZM80.7446 22.74C81.4853 22.74 82.0793 22.9307 82.5266 23.312C82.974 23.6933 83.1976 24.2103 83.1976 24.863C83.1976 25.5157 82.9703 26.0253 82.5156 26.392C82.0683 26.7513 81.4743 26.931 80.7336 26.931L80.6566 26.986H78.8746V30H77.9946V22.74H80.7446ZM80.7336 26.161C81.2543 26.161 81.6393 26.0547 81.8886 25.842C82.1453 25.622 82.2736 25.2957 82.2736 24.863C82.2736 24.4303 82.1453 24.1077 81.8886 23.895C81.6393 23.675 81.2543 23.565 80.7336 23.565H78.8746V26.161H80.7336ZM81.2396 26.337L83.6376 30H82.5926L80.5026 26.821L81.2396 26.337ZM89.0591 30V22.74H91.6441C92.5021 22.74 93.1291 22.9197 93.5251 23.279C93.9211 23.6383 94.1191 24.126 94.1191 24.742C94.1191 25.1087 94.0128 25.4423 93.8001 25.743C93.5874 26.0363 93.2868 26.2233 92.8981 26.304V26.315C93.3308 26.3957 93.6718 26.5937 93.9211 26.909C94.1778 27.217 94.3061 27.569 94.3061 27.965C94.3061 28.581 94.0751 29.076 93.6131 29.45C93.1511 29.8167 92.4911 30 91.6331 30H89.0591ZM89.9391 29.175H91.8421C92.3628 29.175 92.7478 29.0687 92.9971 28.856C93.2538 28.6433 93.3821 28.3463 93.3821 27.965C93.3821 27.5763 93.2538 27.2793 92.9971 27.074C92.7478 26.8613 92.3628 26.755 91.8421 26.755H89.9391V29.175ZM89.9391 25.93H91.6551C92.6818 25.93 93.1951 25.534 93.1951 24.742C93.1951 23.9573 92.6818 23.565 91.6551 23.565H89.9391V25.93ZM101.801 22.74V27.294C101.801 28.2253 101.555 28.9293 101.064 29.406C100.572 29.8753 99.8683 30.11 98.9516 30.11C98.0423 30.11 97.3383 29.8753 96.8396 29.406C96.3483 28.9293 96.1026 28.2253 96.1026 27.294V22.74H96.9826V27.074C96.9826 27.8293 97.1403 28.3867 97.4556 28.746C97.7783 29.1053 98.277 29.285 98.9516 29.285C99.6263 29.285 100.121 29.1053 100.437 28.746C100.759 28.3867 100.921 27.8293 100.921 27.074V22.74H101.801ZM106.366 22.63C107.004 22.63 107.554 22.762 108.016 23.026C108.478 23.2827 108.863 23.664 109.171 24.17L108.434 24.742C108.162 24.2727 107.854 23.9427 107.51 23.752C107.172 23.554 106.762 23.455 106.278 23.455C105.889 23.455 105.566 23.51 105.31 23.62C105.06 23.73 104.877 23.8767 104.76 24.06C104.642 24.236 104.584 24.4377 104.584 24.665C104.584 24.9217 104.664 25.149 104.826 25.347C104.987 25.5377 105.31 25.688 105.794 25.798L107.367 26.15C108.063 26.304 108.547 26.5387 108.819 26.854C109.097 27.162 109.237 27.547 109.237 28.009C109.237 28.4197 109.119 28.7863 108.885 29.109C108.657 29.4243 108.335 29.67 107.917 29.846C107.499 30.022 107.007 30.11 106.443 30.11C105.915 30.11 105.449 30.0403 105.046 29.901C104.65 29.7543 104.309 29.56 104.023 29.318C103.737 29.076 103.502 28.8047 103.319 28.504L104.089 27.877C104.228 28.1557 104.408 28.4013 104.628 28.614C104.848 28.8267 105.112 28.9917 105.42 29.109C105.735 29.2263 106.094 29.285 106.498 29.285C106.872 29.285 107.194 29.241 107.466 29.153C107.744 29.0577 107.957 28.922 108.104 28.746C108.25 28.5627 108.324 28.3427 108.324 28.086C108.324 27.8513 108.247 27.6423 108.093 27.459C107.939 27.2683 107.649 27.1253 107.224 27.03L105.519 26.645C105.071 26.5423 104.708 26.403 104.43 26.227C104.158 26.0437 103.96 25.831 103.836 25.589C103.718 25.3397 103.66 25.072 103.66 24.786C103.66 24.3973 103.766 24.0417 103.979 23.719C104.199 23.389 104.51 23.125 104.914 22.927C105.324 22.729 105.808 22.63 106.366 22.63ZM111.961 22.74V30H111.081V22.74H111.961ZM120.033 22.74V30H118.944L115.908 25.138L115.138 23.774H115.127L115.171 24.874V30H114.335V22.74H115.424L118.449 27.58L119.23 28.977H119.241L119.197 27.866V22.74H120.033ZM122.414 30V22.74H127.507V23.565H123.294V25.908H126.572V26.733H123.294V29.175H127.672V30H122.414ZM131.76 22.63C132.398 22.63 132.948 22.762 133.41 23.026C133.872 23.2827 134.257 23.664 134.565 24.17L133.828 24.742C133.557 24.2727 133.249 23.9427 132.904 23.752C132.567 23.554 132.156 23.455 131.672 23.455C131.284 23.455 130.961 23.51 130.704 23.62C130.455 23.73 130.272 23.8767 130.154 24.06C130.037 24.236 129.978 24.4377 129.978 24.665C129.978 24.9217 130.059 25.149 130.22 25.347C130.382 25.5377 130.704 25.688 131.188 25.798L132.761 26.15C133.458 26.304 133.942 26.5387 134.213 26.854C134.492 27.162 134.631 27.547 134.631 28.009C134.631 28.4197 134.514 28.7863 134.279 29.109C134.052 29.4243 133.729 29.67 133.311 29.846C132.893 30.022 132.402 30.11 131.837 30.11C131.309 30.11 130.844 30.0403 130.44 29.901C130.044 29.7543 129.703 29.56 129.417 29.318C129.131 29.076 128.897 28.8047 128.713 28.504L129.483 27.877C129.623 28.1557 129.802 28.4013 130.022 28.614C130.242 28.8267 130.506 28.9917 130.814 29.109C131.13 29.2263 131.489 29.285 131.892 29.285C132.266 29.285 132.589 29.241 132.86 29.153C133.139 29.0577 133.352 28.922 133.498 28.746C133.645 28.5627 133.718 28.3427 133.718 28.086C133.718 27.8513 133.641 27.6423 133.487 27.459C133.333 27.2683 133.044 27.1253 132.618 27.03L130.913 26.645C130.466 26.5423 130.103 26.403 129.824 26.227C129.553 26.0437 129.355 25.831 129.23 25.589C129.113 25.3397 129.054 25.072 129.054 24.786C129.054 24.3973 129.161 24.0417 129.373 23.719C129.593 23.389 129.905 23.125 130.308 22.927C130.719 22.729 131.203 22.63 131.76 22.63ZM138.807 22.63C139.445 22.63 139.995 22.762 140.457 23.026C140.919 23.2827 141.304 23.664 141.612 24.17L140.875 24.742C140.604 24.2727 140.296 23.9427 139.951 23.752C139.614 23.554 139.203 23.455 138.719 23.455C138.33 23.455 138.008 23.51 137.751 23.62C137.502 23.73 137.318 23.8767 137.201 24.06C137.084 24.236 137.025 24.4377 137.025 24.665C137.025 24.9217 137.106 25.149 137.267 25.347C137.428 25.5377 137.751 25.688 138.235 25.798L139.808 26.15C140.505 26.304 140.989 26.5387 141.26 26.854C141.539 27.162 141.678 27.547 141.678 28.009C141.678 28.4197 141.561 28.7863 141.326 29.109C141.099 29.4243 140.776 29.67 140.358 29.846C139.94 30.022 139.449 30.11 138.884 30.11C138.356 30.11 137.89 30.0403 137.487 29.901C137.091 29.7543 136.75 29.56 136.464 29.318C136.178 29.076 135.943 28.8047 135.76 28.504L136.53 27.877C136.669 28.1557 136.849 28.4013 137.069 28.614C137.289 28.8267 137.553 28.9917 137.861 29.109C138.176 29.2263 138.536 29.285 138.939 29.285C139.313 29.285 139.636 29.241 139.907 29.153C140.186 29.0577 140.398 28.922 140.545 28.746C140.692 28.5627 140.765 28.3427 140.765 28.086C140.765 27.8513 140.688 27.6423 140.534 27.459C140.38 27.2683 140.09 27.1253 139.665 27.03L137.96 26.645C137.513 26.5423 137.15 26.403 136.871 26.227C136.6 26.0437 136.402 25.831 136.277 25.589C136.16 25.3397 136.101 25.072 136.101 24.786C136.101 24.3973 136.207 24.0417 136.42 23.719C136.64 23.389 136.952 23.125 137.355 22.927C137.766 22.729 138.25 22.63 138.807 22.63ZM149.834 22.74C150.325 22.74 150.751 22.8317 151.11 23.015C151.477 23.191 151.763 23.444 151.968 23.774C152.173 24.104 152.276 24.4963 152.276 24.951C152.276 25.4057 152.173 25.798 151.968 26.128C151.763 26.458 151.477 26.7147 151.11 26.898C150.751 27.074 150.325 27.162 149.834 27.162H148.151V30H147.271V22.74H149.834ZM149.702 26.337C150.274 26.337 150.692 26.2197 150.956 25.985C151.22 25.743 151.352 25.3983 151.352 24.951C151.352 24.4963 151.22 24.1517 150.956 23.917C150.692 23.6823 150.274 23.565 149.702 23.565H148.151V26.337H149.702ZM156.735 22.74C157.476 22.74 158.07 22.9307 158.517 23.312C158.964 23.6933 159.188 24.2103 159.188 24.863C159.188 25.5157 158.961 26.0253 158.506 26.392C158.059 26.7513 157.465 26.931 156.724 26.931L156.647 26.986H154.865V30H153.985V22.74H156.735ZM156.724 26.161C157.245 26.161 157.63 26.0547 157.879 25.842C158.136 25.622 158.264 25.2957 158.264 24.863C158.264 24.4303 158.136 24.1077 157.879 23.895C157.63 23.675 157.245 23.565 156.724 23.565H154.865V26.161H156.724ZM157.23 26.337L159.628 30H158.583L156.493 26.821L157.23 26.337ZM164.162 22.63C164.851 22.63 165.445 22.784 165.944 23.092C166.45 23.3927 166.839 23.8217 167.11 24.379C167.389 24.9363 167.528 25.6 167.528 26.37C167.528 27.14 167.389 27.8037 167.11 28.361C166.839 28.9183 166.45 29.351 165.944 29.659C165.445 29.9597 164.851 30.11 164.162 30.11C163.473 30.11 162.875 29.9597 162.369 29.659C161.87 29.351 161.482 28.9183 161.203 28.361C160.932 27.8037 160.796 27.14 160.796 26.37C160.796 25.6 160.932 24.9363 161.203 24.379C161.482 23.8217 161.87 23.3927 162.369 23.092C162.875 22.784 163.473 22.63 164.162 22.63ZM164.162 23.455C163.663 23.455 163.231 23.5723 162.864 23.807C162.497 24.0343 162.215 24.368 162.017 24.808C161.819 25.2407 161.72 25.7613 161.72 26.37C161.72 26.9787 161.819 27.503 162.017 27.943C162.215 28.3757 162.497 28.7093 162.864 28.944C163.231 29.1713 163.663 29.285 164.162 29.285C164.668 29.285 165.101 29.1713 165.46 28.944C165.827 28.7093 166.109 28.3757 166.307 27.943C166.505 27.503 166.604 26.9787 166.604 26.37C166.604 25.7613 166.505 25.2407 166.307 24.808C166.109 24.368 165.827 24.0343 165.46 23.807C165.101 23.5723 164.668 23.455 164.162 23.455ZM175.316 28.141C175.162 28.5517 174.942 28.9073 174.656 29.208C174.37 29.5013 174.033 29.725 173.644 29.879C173.263 30.033 172.845 30.11 172.39 30.11C171.701 30.11 171.103 29.9597 170.597 29.659C170.099 29.351 169.71 28.9183 169.431 28.361C169.16 27.8037 169.024 27.14 169.024 26.37C169.024 25.6 169.16 24.9363 169.431 24.379C169.71 23.8217 170.099 23.3927 170.597 23.092C171.103 22.784 171.694 22.63 172.368 22.63C172.838 22.63 173.256 22.696 173.622 22.828C173.989 22.9527 174.301 23.1433 174.557 23.4C174.821 23.6493 175.03 23.9573 175.184 24.324L174.315 24.731C174.154 24.313 173.919 23.9977 173.611 23.785C173.311 23.565 172.918 23.455 172.434 23.455C171.943 23.455 171.51 23.5723 171.136 23.807C170.762 24.0343 170.469 24.3643 170.256 24.797C170.051 25.2297 169.948 25.754 169.948 26.37C169.948 26.9787 170.047 27.503 170.245 27.943C170.443 28.3757 170.726 28.7093 171.092 28.944C171.459 29.1713 171.892 29.285 172.39 29.285C172.874 29.285 173.296 29.164 173.655 28.922C174.015 28.6727 174.275 28.3023 174.436 27.811L175.316 28.141ZM177.005 30V22.74H182.098V23.565H177.885V25.908H181.163V26.733H177.885V29.175H182.263V30H177.005ZM186.352 22.63C186.99 22.63 187.54 22.762 188.002 23.026C188.464 23.2827 188.849 23.664 189.157 24.17L188.42 24.742C188.149 24.2727 187.841 23.9427 187.496 23.752C187.159 23.554 186.748 23.455 186.264 23.455C185.875 23.455 185.553 23.51 185.296 23.62C185.047 23.73 184.863 23.8767 184.746 24.06C184.629 24.236 184.57 24.4377 184.57 24.665C184.57 24.9217 184.651 25.149 184.812 25.347C184.973 25.5377 185.296 25.688 185.78 25.798L187.353 26.15C188.05 26.304 188.534 26.5387 188.805 26.854C189.084 27.162 189.223 27.547 189.223 28.009C189.223 28.4197 189.106 28.7863 188.871 29.109C188.644 29.4243 188.321 29.67 187.903 29.846C187.485 30.022 186.994 30.11 186.429 30.11C185.901 30.11 185.435 30.0403 185.032 29.901C184.636 29.7543 184.295 29.56 184.009 29.318C183.723 29.076 183.488 28.8047 183.305 28.504L184.075 27.877C184.214 28.1557 184.394 28.4013 184.614 28.614C184.834 28.8267 185.098 28.9917 185.406 29.109C185.721 29.2263 186.081 29.285 186.484 29.285C186.858 29.285 187.181 29.241 187.452 29.153C187.731 29.0577 187.943 28.922 188.09 28.746C188.237 28.5627 188.31 28.3427 188.31 28.086C188.31 27.8513 188.233 27.6423 188.079 27.459C187.925 27.2683 187.635 27.1253 187.21 27.03L185.505 26.645C185.058 26.5423 184.695 26.403 184.416 26.227C184.145 26.0437 183.947 25.831 183.822 25.589C183.705 25.3397 183.646 25.072 183.646 24.786C183.646 24.3973 183.752 24.0417 183.965 23.719C184.185 23.389 184.497 23.125 184.9 22.927C185.311 22.729 185.795 22.63 186.352 22.63ZM193.399 22.63C194.037 22.63 194.587 22.762 195.049 23.026C195.511 23.2827 195.896 23.664 196.204 24.17L195.467 24.742C195.196 24.2727 194.888 23.9427 194.543 23.752C194.206 23.554 193.795 23.455 193.311 23.455C192.922 23.455 192.6 23.51 192.343 23.62C192.094 23.73 191.91 23.8767 191.793 24.06C191.676 24.236 191.617 24.4377 191.617 24.665C191.617 24.9217 191.698 25.149 191.859 25.347C192.02 25.5377 192.343 25.688 192.827 25.798L194.4 26.15C195.097 26.304 195.581 26.5387 195.852 26.854C196.131 27.162 196.27 27.547 196.27 28.009C196.27 28.4197 196.153 28.7863 195.918 29.109C195.691 29.4243 195.368 29.67 194.95 29.846C194.532 30.022 194.041 30.11 193.476 30.11C192.948 30.11 192.482 30.0403 192.079 29.901C191.683 29.7543 191.342 29.56 191.056 29.318C190.77 29.076 190.535 28.8047 190.352 28.504L191.122 27.877C191.261 28.1557 191.441 28.4013 191.661 28.614C191.881 28.8267 192.145 28.9917 192.453 29.109C192.768 29.2263 193.128 29.285 193.531 29.285C193.905 29.285 194.228 29.241 194.499 29.153C194.778 29.0577 194.99 28.922 195.137 28.746C195.284 28.5627 195.357 28.3427 195.357 28.086C195.357 27.8513 195.28 27.6423 195.126 27.459C194.972 27.2683 194.682 27.1253 194.257 27.03L192.552 26.645C192.105 26.5423 191.742 26.403 191.463 26.227C191.192 26.0437 190.994 25.831 190.869 25.589C190.752 25.3397 190.693 25.072 190.693 24.786C190.693 24.3973 190.799 24.0417 191.012 23.719C191.232 23.389 191.544 23.125 191.947 22.927C192.358 22.729 192.842 22.63 193.399 22.63Z" fill="#1284A3"/>
</svg>
