<svg width="200" height="200" viewBox="0 0 200 200" fill="none" xmlns="http://www.w3.org/2000/svg">
<path d="M25 175L61.1417 71.9336L129.167 141.825L25 175Z" fill="#1284A3" stroke="#1284A3" stroke-width="2" stroke-linejoin="round"/>
<path d="M95.834 79.167L116.667 58.3337C127.778 47.2225 129.167 37.5003 120.834 29.167M120.834 104.167L141.667 83.3337C155.556 69.4448 169.445 69.4448 183.334 83.3337" stroke="#1284A3" stroke-width="2" stroke-linecap="round" stroke-linejoin="round"/>
<path d="M83.3333 29.1668C85.5435 29.1668 87.6631 28.2889 89.2259 26.7261C90.7887 25.1632 91.6667 23.0436 91.6667 20.8335C91.6667 18.6234 90.7887 16.5037 89.2259 14.9409C87.6631 13.3781 85.5435 12.5002 83.3333 12.5002C81.1232 12.5002 79.0036 13.3781 77.4408 14.9409C75.878 16.5037 75 18.6234 75 20.8335C75 23.0436 75.878 25.1632 77.4408 26.7261C79.0036 28.2889 81.1232 29.1668 83.3333 29.1668ZM175 25.0002C177.21 25.0002 179.33 24.1222 180.893 22.5594C182.455 20.9966 183.333 18.877 183.333 16.6668C183.333 14.4567 182.455 12.3371 180.893 10.7743C179.33 9.21147 177.21 8.3335 175 8.3335C172.79 8.3335 170.67 9.21147 169.107 10.7743C167.545 12.3371 166.667 14.4567 166.667 16.6668C166.667 18.877 167.545 20.9966 169.107 22.5594C170.67 24.1222 172.79 25.0002 175 25.0002ZM175 120.833C177.21 120.833 179.33 119.956 180.893 118.393C182.455 116.83 183.333 114.71 183.333 112.5C183.333 110.29 182.455 108.17 180.893 106.608C179.33 105.045 177.21 104.167 175 104.167C172.79 104.167 170.67 105.045 169.107 106.608C167.545 108.17 166.667 110.29 166.667 112.5C166.667 114.71 167.545 116.83 169.107 118.393C170.67 119.956 172.79 120.833 175 120.833ZM162.5 158.333C164.71 158.333 166.83 157.456 168.393 155.893C169.955 154.33 170.833 152.21 170.833 150C170.833 147.79 169.955 145.67 168.393 144.108C166.83 142.545 164.71 141.667 162.5 141.667C160.29 141.667 158.17 142.545 156.607 144.108C155.045 145.67 154.167 147.79 154.167 150C154.167 152.21 155.045 154.33 156.607 155.893C158.17 157.456 160.29 158.333 162.5 158.333Z" fill="#1284A3"/>
</svg>
