<svg width="16" height="16" viewBox="0 0 16 16" fill="none" xmlns="http://www.w3.org/2000/svg">
<path d="M12.2186 9.60176C13.242 8.15332 13.6745 6.42582 13.4373 4.73676C13.0145 1.73676 10.2304 -0.36105 7.23045 0.0620745C4.23045 0.4852 2.13232 3.26614 2.55389 6.26614C2.79045 7.9502 3.68264 9.48989 5.06545 10.6018C5.90639 11.278 6.86514 11.7299 7.75451 11.8933L7.49326 13.3068C7.48601 13.3458 7.48816 13.386 7.49953 13.424C7.51091 13.4621 7.53118 13.4969 7.55866 13.5255C7.58615 13.5541 7.62006 13.5758 7.6576 13.5888C7.69513 13.6017 7.73521 13.6055 7.77451 13.5999L8.71857 13.4683C9.21545 14.5893 10.0201 15.3583 11.1689 15.8121L11.6339 15.9958L12.0017 15.0661L11.5367 14.8821C10.7133 14.5564 10.1467 14.0646 9.75545 13.3221L10.4379 13.2261C10.4772 13.2206 10.5146 13.2059 10.547 13.1831C10.5794 13.1603 10.606 13.1301 10.6245 13.095C10.6429 13.06 10.6528 13.021 10.6532 12.9814C10.6537 12.9417 10.6447 12.9026 10.627 12.8671L9.9867 11.5808C10.7986 11.1786 11.5958 10.4814 12.2186 9.60176ZM7.19295 10.0911C5.90357 9.58114 4.80857 8.44426 4.33514 7.12426L4.16639 6.65364L5.10764 6.31614L5.27639 6.78676C5.72951 8.05051 6.75357 8.84207 7.56076 9.16176L8.02576 9.34551L7.65795 10.2755L7.19295 10.0911Z" fill="currentColor"/>
</svg>
