<svg width="15" height="15" viewBox="0 0 15 15" fill="none" xmlns="http://www.w3.org/2000/svg">
<path d="M10.4332 1.999H8.34786C7.97106 2.0002 7.98516 2.5618 8.34786 2.5585H10.4332V2.8456H8.34786C7.97316 2.8423 7.98696 3.4036 8.34786 3.4051H10.4332V3.6985H8.34786C7.97316 3.6985 7.98696 4.25951 8.34786 4.258H10.4332V4.5376H8.34786C7.98096 4.54031 7.98696 5.1019 8.34786 5.1037H10.4332V5.3839H8.34786C7.98096 5.38271 7.97946 5.94341 8.34786 5.94341H10.4332V6.223H8.34786C7.98096 6.2242 7.97946 6.78551 8.34786 6.7828H10.4332V7.0693H8.34786C7.98096 7.06601 7.97946 7.62671 8.34786 7.62881H10.4332V7.9078H8.34786C7.98096 7.90751 7.98696 8.46941 8.34786 8.4676H10.4332V13.9153C10.4344 14.7454 11.6953 14.7304 11.6989 13.9153V1.1668C11.6953 0.787605 11.3839 0.308205 10.8715 0.306705H8.34786C7.97106 0.307005 7.98516 0.868605 8.34786 0.866205L10.4332 0.873105V1.1521H8.34786C7.97166 1.1503 7.98576 1.7116 8.34786 1.7119H10.4332V1.999ZM8.20446 11.6572C8.20326 10.6882 7.19886 9.646 5.99886 10.321V6.6148L5.22276 0.502305C5.20656 0.340605 5.06946 0.302505 4.97736 0.299805C4.88226 0.302505 4.69176 0.340605 4.67106 0.502305L3.89886 6.6148V10.321C2.69886 9.646 1.72686 10.6948 1.72656 11.6497C1.72686 12.4993 2.38086 13.1971 3.26586 13.195C4.15746 13.1971 4.79886 12.415 4.79886 11.6497V7.79981H5.09886V11.6497C5.09886 12.5065 5.76246 13.1407 6.49986 13.1809C6.48756 13.6507 6.64086 14.3209 6.92946 14.5867C7.26786 14.8987 7.67076 14.4997 7.50546 14.1748C7.34586 13.8724 7.18926 13.6933 7.31646 13.033C7.84806 12.787 8.20326 12.2692 8.20446 11.6572ZM3.30006 12.4195C3.09777 12.4195 2.90376 12.3391 2.76072 12.1961C2.61767 12.0531 2.53731 11.859 2.53731 11.6568C2.53731 11.4545 2.61767 11.2605 2.76072 11.1174C2.90376 10.9744 3.09777 10.894 3.30006 10.894C3.71586 10.8964 4.05456 11.2375 4.05756 11.6572C4.05686 11.8583 3.97698 12.0511 3.83521 12.1938C3.69344 12.3364 3.50118 12.4175 3.30006 12.4195ZM5.87136 11.6572C5.87206 11.4559 5.95195 11.263 6.09377 11.1202C6.23558 10.9774 6.42791 10.8961 6.62916 10.894C6.83044 10.896 7.02283 10.9772 7.16463 11.1201C7.30642 11.2629 7.3862 11.4559 7.38666 11.6572C7.38635 11.8585 7.3066 12.0514 7.16474 12.1942C7.02289 12.337 6.83041 12.4179 6.62916 12.4195C6.42799 12.4176 6.23566 12.3365 6.09382 12.1939C5.95199 12.0512 5.87206 11.8584 5.87136 11.6572Z" fill="currentColor"/>
</svg>
