<svg width="15" height="15" viewBox="0 0 15 15" fill="none" xmlns="http://www.w3.org/2000/svg">
<path d="M9.375 1.875C9.69036 1.8749 9.9941 1.994 10.2253 2.20844C10.4566 2.42287 10.5982 2.71678 10.6219 3.03125L10.625 3.125C10.625 3.27808 10.6812 3.42584 10.7829 3.54023C10.8847 3.65463 11.0248 3.72771 11.1769 3.74563L11.25 3.75H11.875C12.3533 3.74997 12.8134 3.9327 13.1614 4.2608C13.5094 4.5889 13.7188 5.03757 13.7469 5.515L13.75 5.625V11.25C13.75 11.7283 13.5673 12.1884 13.2392 12.5364C12.9111 12.8844 12.4624 13.0938 11.985 13.1219L11.875 13.125H3.125C2.64674 13.125 2.18655 12.9423 1.83859 12.6142C1.49062 12.2861 1.28118 11.8374 1.25313 11.36L1.25 11.25V5.625C1.24997 5.14674 1.4327 4.68655 1.7608 4.33859C2.0889 3.99062 2.53757 3.78118 3.015 3.75313L3.125 3.75H3.75C3.91576 3.75 4.07473 3.68415 4.19194 3.56694C4.30915 3.44973 4.375 3.29076 4.375 3.125C4.3749 2.80964 4.494 2.5059 4.70844 2.27466C4.92287 2.04342 5.21678 1.90178 5.53125 1.87813L5.625 1.875H9.375ZM7.5 6.25C7.03537 6.24996 6.58728 6.42244 6.24258 6.73399C5.89789 7.04554 5.68115 7.47398 5.63438 7.93625L5.6275 8.03125L5.625 8.125L5.6275 8.21875C5.64584 8.58514 5.77127 8.93811 5.98823 9.23393C6.2052 9.52974 6.50418 9.75541 6.84814 9.88298C7.19209 10.0106 7.56592 10.0344 7.92331 9.95163C8.2807 9.86883 8.60595 9.68302 8.85878 9.4172C9.1116 9.15138 9.28089 8.81723 9.34568 8.45614C9.41047 8.09506 9.36791 7.72289 9.22328 7.38576C9.07864 7.04862 8.83828 6.76132 8.53197 6.55944C8.22566 6.35756 7.86685 6.24997 7.5 6.25Z" fill="currentColor"/>
</svg>
