<svg width="15" height="15" viewBox="0 0 15 15" fill="none" xmlns="http://www.w3.org/2000/svg">
<path d="M0.625 13.75V6.875H3.125V13.75H0.625ZM8.75 13.75L4.375 12.5156V6.875H5.60938L10.625 8.75V10H8.125L7.03125 9.57812L6.8125 10.1562L8.125 10.625H13.75V11.875L8.75 13.75ZM9.375 7.28125L5.78125 5.9375H3.28125C3.45833 5.40625 3.75271 4.94792 4.16438 4.5625C4.57604 4.17708 5.06292 3.92708 5.625 3.8125V2.5H4.6875V1.25H8.125C8.47917 1.25 8.8125 1.30729 9.125 1.42188C9.4375 1.53646 9.72396 1.69271 9.98438 1.89063L9.09375 2.78125C8.94792 2.69792 8.79417 2.63021 8.6325 2.57812C8.47083 2.52604 8.30167 2.5 8.125 2.5H6.875V3.8125C7.59375 3.95833 8.19 4.31521 8.66375 4.88313C9.1375 5.45104 9.37458 6.115 9.375 6.875V7.28125ZM11.875 6.25C11.5312 6.25 11.2371 6.1275 10.9925 5.8825C10.7479 5.6375 10.6254 5.34333 10.625 5C10.625 4.76042 10.7135 4.46354 10.8906 4.10938C11.0677 3.75521 11.3958 3.21875 11.875 2.5C12.3542 3.21875 12.6823 3.75521 12.8594 4.10938C13.0365 4.46354 13.125 4.76042 13.125 5C13.125 5.34375 13.0027 5.63812 12.7581 5.88313C12.5135 6.12813 12.2192 6.25042 11.875 6.25Z" fill="currentColor"/>
</svg>
