<svg width="15" height="15" viewBox="0 0 15 15" fill="none" xmlns="http://www.w3.org/2000/svg">
<path d="M3.125 14.375C2.78125 14.375 2.48708 14.2527 2.2425 14.0081C1.99792 13.7635 1.87542 13.4692 1.875 13.125V10C1.875 9.13542 2.17979 8.39854 2.78937 7.78938C3.39896 7.18021 4.13583 6.87542 5 6.875H5.625V1.875C5.625 1.53125 5.7475 1.23708 5.9925 0.9925C6.2375 0.747917 6.53167 0.625417 6.875 0.625H8.125C8.46875 0.625 8.76312 0.7475 9.00813 0.9925C9.25313 1.2375 9.37542 1.53167 9.375 1.875V6.875H10C10.8646 6.875 11.6017 7.17979 12.2113 7.78938C12.8208 8.39896 13.1254 9.13583 13.125 10V13.125C13.125 13.4688 13.0027 13.7631 12.7581 14.0081C12.5135 14.2531 12.2192 14.3754 11.875 14.375H3.125ZM3.125 13.125H4.375V11.25C4.375 11.0729 4.435 10.9246 4.555 10.805C4.675 10.6854 4.82333 10.6254 5 10.625C5.17667 10.6246 5.32521 10.6846 5.44563 10.805C5.56604 10.9254 5.62583 11.0737 5.625 11.25V13.125H6.875V11.25C6.875 11.0729 6.935 10.9246 7.055 10.805C7.175 10.6854 7.32333 10.6254 7.5 10.625C7.67667 10.6246 7.82521 10.6846 7.94563 10.805C8.06604 10.9254 8.12583 11.0737 8.125 11.25V13.125H9.375V11.25C9.375 11.0729 9.435 10.9246 9.555 10.805C9.675 10.6854 9.82333 10.6254 10 10.625C10.1767 10.6246 10.3252 10.6846 10.4456 10.805C10.566 10.9254 10.6258 11.0737 10.625 11.25V13.125H11.875V10C11.875 9.47917 11.6927 9.03646 11.3281 8.67188C10.9635 8.30729 10.5208 8.125 10 8.125H5C4.47917 8.125 4.03646 8.30729 3.67188 8.67188C3.30729 9.03646 3.125 9.47917 3.125 10V13.125Z" fill="currentColor"/>
</svg>
