<svg width="15" height="15" viewBox="0 0 15 15" fill="none" xmlns="http://www.w3.org/2000/svg">
<path d="M8.1634 1.40632C7.9876 1.23057 7.74918 1.13184 7.50059 1.13184C7.252 1.13184 7.01359 1.23057 6.83778 1.40632L0.606217 7.63695C0.562635 7.68053 0.528063 7.73227 0.504477 7.78921C0.48089 7.84616 0.46875 7.90719 0.46875 7.96882C0.46875 8.03046 0.48089 8.09149 0.504477 8.14843C0.528063 8.20538 0.562635 8.25712 0.606217 8.3007C0.694236 8.38872 0.813615 8.43817 0.938092 8.43817C0.999727 8.43817 1.06076 8.42603 1.1177 8.40244C1.17464 8.37885 1.22638 8.34428 1.26997 8.3007L7.50059 2.06914L13.7312 8.3007C13.8192 8.38872 13.9386 8.43817 14.0631 8.43817C14.1876 8.43817 14.3069 8.38872 14.395 8.3007C14.483 8.21268 14.5324 8.0933 14.5324 7.96882C14.5324 7.84435 14.483 7.72497 14.395 7.63695L12.1881 5.43101V2.34382C12.1881 2.2195 12.1387 2.10027 12.0508 2.01237C11.9629 1.92446 11.8437 1.87507 11.7193 1.87507H10.7818C10.6575 1.87507 10.5383 1.92446 10.4504 2.01237C10.3625 2.10027 10.3131 2.2195 10.3131 2.34382V3.55601L8.1634 1.40632Z" fill="currentColor"/>
<path d="M7.5 3.08691L13.125 8.71191V12.656C13.125 13.0289 12.9768 13.3866 12.7131 13.6503C12.4494 13.9141 12.0917 14.0622 11.7188 14.0622H3.28125C2.90829 14.0622 2.5506 13.9141 2.28688 13.6503C2.02316 13.3866 1.875 13.0289 1.875 12.656V8.71191L7.5 3.08691Z" fill="currentColor"/>
</svg>
