<svg width="15" height="15" viewBox="0 0 15 15" fill="none" xmlns="http://www.w3.org/2000/svg">
<path d="M8.2495 4.41898L6.40575 6.87523L7.812 8.75023C8.01825 9.02523 7.962 9.41898 7.687 9.62523C7.62153 9.67496 7.54683 9.71119 7.46725 9.73184C7.38767 9.75248 7.30478 9.75713 7.22339 9.7455C7.142 9.73387 7.06373 9.70621 6.99311 9.6641C6.92249 9.622 6.86093 9.5663 6.812 9.50023C6.15575 8.62523 5.36825 7.58148 4.8745 6.91273C4.6245 6.58148 4.1245 6.58148 3.8745 6.91273L1.3745 10.244C1.06825 10.6627 1.362 11.2502 1.8745 11.2502H13.1245C13.637 11.2502 13.9307 10.6627 13.6245 10.2502L9.2495 4.41898C9.19183 4.34056 9.11653 4.2768 9.02967 4.23286C8.94282 4.18891 8.84684 4.16602 8.7495 4.16602C8.65216 4.16602 8.55618 4.18891 8.46933 4.23286C8.38247 4.2768 8.30716 4.34056 8.2495 4.41898Z" fill="#393939"/>
</svg>
