<svg width="15" height="15" viewBox="0 0 15 15" fill="none" xmlns="http://www.w3.org/2000/svg">
<path d="M14.8192 12.8184C14.8192 13.1195 14.7141 13.3752 14.5039 13.5854L13.592 14.5059C13.3704 14.7161 13.1119 14.8212 12.8164 14.8212C12.5153 14.8212 12.2596 14.7161 12.0494 14.5059L8.95561 11.4036C8.7397 11.199 8.63175 10.9434 8.63175 10.6365C8.63175 10.3354 8.75391 10.0627 8.99822 9.81836L6.81641 7.63654L5.74254 8.71041C5.663 8.78995 5.56641 8.82972 5.45277 8.82972C5.33913 8.82972 5.24254 8.78995 5.163 8.71041C5.17436 8.72177 5.20987 8.75586 5.26953 8.81268C5.32919 8.8695 5.3647 8.90643 5.37607 8.92347C5.38743 8.94052 5.41584 8.97319 5.46129 9.02148C5.50675 9.06978 5.53516 9.10813 5.54652 9.13654C5.55788 9.16495 5.57493 9.2033 5.59766 9.2516C5.62038 9.29989 5.63601 9.34677 5.64453 9.39222C5.65305 9.43768 5.65732 9.48881 5.65732 9.54563C5.65732 9.76154 5.57777 9.95472 5.41868 10.1252C5.40163 10.1422 5.35476 10.1934 5.27805 10.2786C5.20135 10.3638 5.14737 10.4221 5.11612 10.4533C5.08487 10.4846 5.03232 10.5314 4.95845 10.5939C4.88459 10.6564 4.82209 10.7005 4.77095 10.726C4.71982 10.7516 4.65732 10.7772 4.58345 10.8027C4.50959 10.8283 4.43572 10.8411 4.36186 10.8411C4.13459 10.8411 3.94141 10.7615 3.78232 10.6025L0.305043 7.12518C0.145952 6.96609 0.0664062 6.7729 0.0664062 6.54563C0.0664062 6.47177 0.0791903 6.3979 0.104759 6.32404C0.130327 6.25018 0.155895 6.18768 0.181463 6.13654C0.207031 6.0854 0.251065 6.0229 0.313565 5.94904C0.376065 5.87518 0.42294 5.82262 0.45419 5.79137C0.48544 5.76012 0.543679 5.70614 0.628906 5.62944C0.714134 5.55273 0.76527 5.50586 0.782315 5.48881C0.95277 5.32972 1.14595 5.25018 1.36186 5.25018C1.41868 5.25018 1.46982 5.25444 1.51527 5.26296C1.56072 5.27148 1.6076 5.28711 1.65589 5.30984C1.70419 5.33256 1.74254 5.34961 1.77095 5.36097C1.79936 5.37234 1.83771 5.40075 1.88601 5.4462C1.9343 5.49165 1.96697 5.52006 1.98402 5.53143C2.00107 5.54279 2.038 5.5783 2.09482 5.63796C2.15163 5.69762 2.18572 5.73313 2.19709 5.7445C2.11754 5.66495 2.07777 5.56836 2.07777 5.45472C2.07777 5.34109 2.11754 5.2445 2.19709 5.16495L5.163 2.19904C5.24254 2.1195 5.33913 2.07972 5.45277 2.07972C5.56641 2.07972 5.663 2.1195 5.74254 2.19904C5.73118 2.18768 5.69567 2.15359 5.63601 2.09677C5.57635 2.03995 5.54084 2.00302 5.52947 1.98597C5.51811 1.96893 5.4897 1.93626 5.44425 1.88796C5.39879 1.83967 5.37038 1.80131 5.35902 1.7729C5.34766 1.7445 5.33061 1.70614 5.30788 1.65785C5.28516 1.60955 5.26953 1.56268 5.26101 1.51722C5.25249 1.47177 5.24822 1.42063 5.24822 1.36381C5.24822 1.1479 5.32777 0.954723 5.48686 0.784268C5.50391 0.767223 5.55078 0.716087 5.62749 0.630859C5.70419 0.545632 5.75817 0.487393 5.78942 0.456143C5.82067 0.424893 5.87322 0.378018 5.94709 0.315518C6.02095 0.253018 6.08345 0.208984 6.13459 0.183416C6.18572 0.157848 6.24822 0.13228 6.32209 0.106712C6.39595 0.0811435 6.46982 0.0683594 6.54368 0.0683594C6.77095 0.0683594 6.96413 0.147905 7.12322 0.306996L10.6005 3.78427C10.7596 3.94336 10.8391 4.13654 10.8391 4.36381C10.8391 4.43768 10.8264 4.51154 10.8008 4.5854C10.7752 4.65927 10.7496 4.72177 10.7241 4.7729C10.6985 4.82404 10.6545 4.88654 10.592 4.9604C10.5295 5.03427 10.4826 5.08683 10.4514 5.11808C10.4201 5.14933 10.3619 5.2033 10.2766 5.28001C10.1914 5.35671 10.1403 5.40359 10.1232 5.42063C9.95277 5.57972 9.75959 5.65927 9.54368 5.65927C9.48686 5.65927 9.43572 5.65501 9.39027 5.64648C9.34482 5.63796 9.29794 5.62234 9.24965 5.59961C9.20135 5.57688 9.163 5.55984 9.13459 5.54847C9.10618 5.53711 9.06783 5.5087 9.01953 5.46325C8.97124 5.41779 8.93857 5.38938 8.92152 5.37802C8.90447 5.36665 8.86754 5.33114 8.81072 5.27148C8.75391 5.21183 8.71982 5.17631 8.70845 5.16495C8.788 5.2445 8.82777 5.34109 8.82777 5.45472C8.82777 5.56836 8.788 5.66495 8.70845 5.7445L7.63459 6.81836L9.81641 9.00018C10.0607 8.75586 10.3335 8.6337 10.6346 8.6337C10.93 8.6337 11.1886 8.73881 11.4102 8.94904L14.5039 12.0428C14.7141 12.2644 14.8192 12.5229 14.8192 12.8184Z" fill="currentColor"/>
</svg>
