<svg width="15" height="15" viewBox="0 0 15 15" fill="none" xmlns="http://www.w3.org/2000/svg">
<path fill-rule="evenodd" clip-rule="evenodd" d="M7.5325 0.78125H7.4675C6.90562 0.78125 6.4375 0.78125 6.06625 0.83125C5.67375 0.88375 5.31938 1 5.035 1.28438C4.75 1.56938 4.63375 1.92375 4.58125 2.31562C4.54562 2.5825 4.535 3.21938 4.5325 3.76562C3.26875 3.8075 2.50937 3.955 1.9825 4.4825C1.25 5.21438 1.25 6.39313 1.25 8.75C1.25 11.1069 1.25 12.2856 1.9825 13.0175C2.715 13.7494 3.89313 13.75 6.25 13.75H8.75C11.1069 13.75 12.2856 13.75 13.0175 13.0175C13.7494 12.285 13.75 11.1069 13.75 8.75C13.75 6.39313 13.75 5.21438 13.0175 4.4825C12.4906 3.955 11.7312 3.8075 10.4675 3.76625C10.465 3.21938 10.455 2.5825 10.4187 2.31625C10.3663 1.92375 10.25 1.56937 9.965 1.285C9.68062 1 9.32625 0.88375 8.93375 0.83125C8.5625 0.78125 8.09375 0.78125 7.5325 0.78125ZM9.53 3.75125C9.52688 3.22187 9.51812 2.6525 9.49 2.44062C9.45063 2.1525 9.38375 2.02875 9.3025 1.9475C9.22125 1.86625 9.0975 1.79937 8.80875 1.76C8.5075 1.72 8.1025 1.71875 7.5 1.71875C6.8975 1.71875 6.4925 1.72 6.19062 1.76062C5.9025 1.79937 5.77875 1.86625 5.6975 1.94813C5.61625 2.03 5.54938 2.1525 5.51 2.44062C5.48187 2.65312 5.4725 3.22187 5.47 3.75125C5.715 3.75 5.975 3.74958 6.25 3.75H8.75C9.02583 3.75 9.28583 3.75042 9.53 3.75125ZM7.5 5.78125C7.62432 5.78125 7.74355 5.83064 7.83146 5.91854C7.91936 6.00645 7.96875 6.12568 7.96875 6.25V6.25625C8.64937 6.4275 9.21875 6.96438 9.21875 7.70813C9.21875 7.83245 9.16936 7.95167 9.08146 8.03958C8.99355 8.12749 8.87432 8.17688 8.75 8.17688C8.62568 8.17688 8.50645 8.12749 8.41854 8.03958C8.33064 7.95167 8.28125 7.83245 8.28125 7.70813C8.28125 7.46813 8.015 7.13562 7.5 7.13562C6.985 7.13562 6.71875 7.46813 6.71875 7.70813C6.71875 7.94812 6.985 8.28125 7.5 8.28125C8.36562 8.28125 9.21875 8.88125 9.21875 9.79187C9.21875 10.5356 8.64937 11.0719 7.96875 11.2437V11.25C7.96875 11.3743 7.91936 11.4935 7.83146 11.5815C7.74355 11.6694 7.62432 11.7188 7.5 11.7188C7.37568 11.7188 7.25645 11.6694 7.16854 11.5815C7.08064 11.4935 7.03125 11.3743 7.03125 11.25V11.2437C6.35063 11.0725 5.78125 10.5356 5.78125 9.79187C5.78125 9.66755 5.83064 9.54833 5.91854 9.46042C6.00645 9.37251 6.12568 9.32312 6.25 9.32312C6.37432 9.32312 6.49355 9.37251 6.58146 9.46042C6.66936 9.54833 6.71875 9.66755 6.71875 9.79187C6.71875 10.0319 6.985 10.3644 7.5 10.3644C8.015 10.3644 8.28125 10.0319 8.28125 9.79187C8.28125 9.55188 8.015 9.21875 7.5 9.21875C6.63438 9.21875 5.78125 8.61875 5.78125 7.70813C5.78125 6.96438 6.35063 6.4275 7.03125 6.25625V6.25C7.03125 6.12568 7.08064 6.00645 7.16854 5.91854C7.25645 5.83064 7.37568 5.78125 7.5 5.78125Z" fill="currentColor"/>
</svg>
