<svg width="15" height="15" viewBox="0 0 15 15" fill="none" xmlns="http://www.w3.org/2000/svg">
<path d="M1.25 12.5C1.39198 12.6978 1.57998 12.8581 1.79777 12.967C2.01555 13.0759 2.25656 13.1301 2.5 13.125C2.74344 13.1301 2.98445 13.0759 3.20223 12.967C3.42002 12.8581 3.60802 12.6978 3.75 12.5C3.89198 12.3022 4.07998 12.1419 4.29777 12.033C4.51555 11.9241 4.75656 11.8699 5 11.875C5.24344 11.8699 5.48445 11.9241 5.70224 12.033C5.92002 12.1419 6.10802 12.3022 6.25 12.5C6.39198 12.6978 6.57998 12.8581 6.79776 12.967C7.01555 13.0759 7.25656 13.1301 7.5 13.125C7.74344 13.1301 7.98445 13.0759 8.20224 12.967C8.42002 12.8581 8.60802 12.6978 8.75 12.5C8.89198 12.3022 9.07998 12.1419 9.29776 12.033C9.51555 11.9241 9.75656 11.8699 10 11.875C10.2434 11.8699 10.4845 11.9241 10.7022 12.033C10.92 12.1419 11.108 12.3022 11.25 12.5C11.392 12.6978 11.58 12.8581 11.7978 12.967C12.0155 13.0759 12.2566 13.1301 12.5 13.125C12.7434 13.1301 12.9845 13.0759 13.2022 12.967C13.42 12.8581 13.608 12.6978 13.75 12.5M2.5 11.25L1.875 8.125H13.125L11.875 10.625M3.125 8.125V4.375H8.125L10.625 8.125M4.375 4.375V1.875H3.75" stroke="currentColor" stroke-width="2" stroke-linecap="round" stroke-linejoin="round"/>
</svg>
