<svg width="15" height="15" viewBox="0 0 15 15" fill="currentColor" xmlns="http://www.w3.org/2000/svg">
  <path fill="currentColor" fill-rule="evenodd" clip-rule="evenodd" d="M4.70609 1.66084C5.48729 1.45957 6.30893 1.47817 7.08022 1.7146C7.85151 1.95103 8.54242 2.39609 9.07662 3.00058C9.61082 3.60508 9.9675 4.34549 10.1073 5.14001C10.247 5.93452 10.1644 6.75221 9.86859 7.50272L12.743 9.93584C12.961 10.1201 13.1384 10.3475 13.2639 10.6038C13.3895 10.8602 13.4605 11.1397 13.4724 11.4249C13.4843 11.7101 13.4369 11.9946 13.3332 12.2605C13.2295 12.5264 13.0718 12.7679 12.8699 12.9697C12.6681 13.1715 12.4266 13.3292 12.1606 13.4329C11.8947 13.5365 11.6102 13.5838 11.325 13.5718C11.0398 13.5598 10.7603 13.4888 10.504 13.3632C10.2477 13.2376 10.0203 13.0601 9.83609 12.8421L7.40422 9.96897C6.65361 10.2653 5.83569 10.3483 5.04087 10.2087C4.24605 10.0692 3.5053 9.71255 2.90052 9.17828C2.29574 8.644 1.85049 7.95289 1.61399 7.18134C1.3775 6.4098 1.35898 5.58788 1.56047 4.80647C1.58888 4.69667 1.64634 4.59656 1.72682 4.51665C1.8073 4.43674 1.90782 4.37999 2.01782 4.35236C2.12782 4.32473 2.24322 4.32725 2.35191 4.35965C2.4606 4.39205 2.55855 4.45312 2.63547 4.53647L4.53859 6.60334L5.97422 6.07522L6.50359 4.63772L4.43547 2.73772C4.35163 2.66082 4.29012 2.5627 4.25746 2.45373C4.2248 2.34475 4.2222 2.22898 4.24993 2.11865C4.27765 2.00831 4.33468 1.90753 4.41498 1.82694C4.49528 1.74635 4.59586 1.68896 4.70609 1.66084Z"/>
</svg>
