<svg width="15" height="15" viewBox="0 0 15 15" fill="none" xmlns="http://www.w3.org/2000/svg">
<path d="M9.375 2.5C9.70652 2.5 10.0245 2.6317 10.2589 2.86612C10.4933 3.10054 10.625 3.41848 10.625 3.75V4.375H11.575C11.7624 4.37502 11.9473 4.41716 12.1162 4.4983C12.2851 4.57944 12.4335 4.6975 12.5506 4.84375L13.4756 6.00062C13.6532 6.22231 13.75 6.49785 13.75 6.78187V9.375C13.75 9.70652 13.6183 10.0245 13.3839 10.2589C13.1495 10.4933 12.8315 10.625 12.5 10.625H11.875C11.875 11.1223 11.6775 11.5992 11.3258 11.9508C10.9742 12.3025 10.4973 12.5 10 12.5C9.50272 12.5 9.02581 12.3025 8.67417 11.9508C8.32254 11.5992 8.125 11.1223 8.125 10.625H6.25C6.25 10.8712 6.2015 11.115 6.10727 11.3425C6.01305 11.57 5.87494 11.7767 5.70083 11.9508C5.52672 12.1249 5.32002 12.263 5.09253 12.3573C4.86505 12.4515 4.62123 12.5 4.375 12.5C4.12877 12.5 3.88495 12.4515 3.65747 12.3573C3.42998 12.263 3.22328 12.1249 3.04917 11.9508C2.87506 11.7767 2.73695 11.57 2.64273 11.3425C2.5485 11.115 2.5 10.8712 2.5 10.625C2.16848 10.625 1.85054 10.4933 1.61612 10.2589C1.3817 10.0245 1.25 9.70652 1.25 9.375V3.75C1.25 3.41848 1.3817 3.10054 1.61612 2.86612C1.85054 2.6317 2.16848 2.5 2.5 2.5H9.375ZM4.375 10C4.20924 10 4.05027 10.0658 3.93306 10.1831C3.81585 10.3003 3.75 10.4592 3.75 10.625C3.75 10.7908 3.81585 10.9497 3.93306 11.0669C4.05027 11.1842 4.20924 11.25 4.375 11.25C4.54076 11.25 4.69973 11.1842 4.81694 11.0669C4.93415 10.9497 5 10.7908 5 10.625C5 10.4592 4.93415 10.3003 4.81694 10.1831C4.69973 10.0658 4.54076 10 4.375 10ZM10 10C9.83424 10 9.67527 10.0658 9.55806 10.1831C9.44085 10.3003 9.375 10.4592 9.375 10.625C9.375 10.7908 9.44085 10.9497 9.55806 11.0669C9.67527 11.1842 9.83424 11.25 10 11.25C10.1658 11.25 10.3247 11.1842 10.4419 11.0669C10.5592 10.9497 10.625 10.7908 10.625 10.625C10.625 10.4592 10.5592 10.3003 10.4419 10.1831C10.3247 10.0658 10.1658 10 10 10ZM11.575 5.625H10.625V8.125H12.5V6.78125L11.575 5.625Z" fill="currentColor"/>
</svg>
